{
  "accessors": [
    {
      "bufferView": 2,
      "componentType": 5126,
      "count": 2537,
      "max": [
        -0.06897199898958206,
        0.4124549925327301,
        0.7680490016937256
      ],
      "min": [
        -0.2350820004940033,
        0.18551699817180634,
        0.3263950049877167
      ],
      "type": "VEC3"
    },
    {
      "bufferView": 2,
      "byteOffset": 30444,
      "componentType": 5126,
      "count": 2537,
      "max": [
        0.9974807500839233,
        0.9954283833503723,
        0.9999175071716309
      ],
      "min": [
        -0.9983423948287964,
        -0.9952598810195923,
        -0.9999322891235352
      ],
      "type": "VEC3"
    },
    {
      "bufferView": 1,
      "componentType": 5126,
      "count": 2537,
      "max": [
        0.875,
        1.0
      ],
      "min": [
        0.125,
        0.0
      ],
      "type": "VEC2"
    },
    {
      "bufferView": 0,
      "componentType": 5125,
      "count": 14592,
      "type": "SCALAR"
    },
    {
      "bufferView": 2,
      "byteOffset": 60888,
      "componentType": 5126,
      "count": 1257,
      "max": [
        0.1090259999036789,
        0.009851999580860138,
        0.5967869758605957
      ],
      "min": [
        -0.06009399890899658,
        -0.1991489976644516,
        0.3303540050983429
      ],
      "type": "VEC3"
    },
    {
      "bufferView": 2,
      "byteOffset": 75972,
      "componentType": 5126,
      "count": 1257,
      "max": [
        0.9994673132896423,
        0.9972466230392456,
        0.9974409937858582
      ],
      "min": [
        -0.9995414614677429,
        -0.9966109991073608,
        -0.9951305985450745
      ],
      "type": "VEC3"
    },
    {
      "bufferView": 1,
      "byteOffset": 20296,
      "componentType": 5126,
      "count": 1257,
      "max": [
        0.875,
        1.0
      ],
      "min": [
        0.125,
        0.0
      ],
      "type": "VEC2"
    },
    {
      "bufferView": 0,
      "byteOffset": 58368,
      "componentType": 5125,
      "count": 6912,
      "type": "SCALAR"
    },
    {
      "bufferView": 2,
      "byteOffset": 91056,
      "componentType": 5126,
      "count": 1257,
      "max": [
        0.05810699984431267,
        0.23893000185489655,
        0.4058459997177124
      ],
      "min": [
        -0.18181699514389038,
        -0.054760001599788666,
        0.24374599754810333
      ],
      "type": "VEC3"
    },
    {
      "bufferView": 2,
      "byteOffset": 106140,
      "componentType": 5126,
      "count": 1257,
      "max": [
        0.9999841451644897,
        0.9969057440757751,
        1.0
      ],
      "min": [
        -0.9996475577354431,
        -0.9968500137329102,
        -1.0
      ],
      "type": "VEC3"
    },
    {
      "bufferView": 1,
      "byteOffset": 30352,
      "componentType": 5126,
      "count": 1257,
      "max": [
        0.875,
        1.0
      ],
      "min": [
        0.125,
        0.0
      ],
      "type": "VEC2"
    },
    {
      "bufferView": 0,
      "byteOffset": 86016,
      "componentType": 5125,
      "count": 6912,
      "type": "SCALAR"
    },
    {
      "bufferView": 2,
      "byteOffset": 121224,
      "componentType": 5126,
      "count": 4857,
      "max": [
        0.22741200029850006,
        -0.12457100301980972,
        0.7281370162963867
      ],
      "min": [
        0.0028520000632852316,
        -0.44650501012802124,
        0.555383026599884
      ],
      "type": "VEC3"
    },
    {
      "bufferView": 2,
      "byteOffset": 179508,
      "componentType": 5126,
      "count": 4857,
      "max": [
        0.9996245503425598,
        0.9996700882911682,
        0.997249960899353
      ],
      "min": [
        -0.9991075396537781,
        -0.9998557567596436,
        -0.9966660141944885
      ],
      "type": "VEC3"
    },
    {
      "bufferView": 1,
      "byteOffset": 40408,
      "componentType": 5126,
      "count": 4857,
      "max": [
        0.875,
        1.0
      ],
      "min": [
        0.125,
        0.0
      ],
      "type": "VEC2"
    },
    {
      "bufferView": 0,
      "byteOffset": 113664,
      "componentType": 5125,
      "count": 28416,
      "type": "SCALAR"
    },
    {
      "bufferView": 2,
      "byteOffset": 237792,
      "componentType": 5126,
      "count": 2514,
      "max": [
        0.18725499510765076,
        -0.01679600030183792,
        0.8798729777336121
      ],
      "min": [
        -0.10787799954414368,
        -0.25124499201774597,
        0.5829839706420898
      ],
      "type": "VEC3"
    },
    {
      "bufferView": 2,
      "byteOffset": 267960,
      "componentType": 5126,
      "count": 2514,
      "max": [
        0.9987146854400635,
        0.9983190298080444,
        0.9979247450828552
      ],
      "min": [
        -0.9986409544944763,
        -0.9984738230705261,
        -0.9979087114334106
      ],
      "type": "VEC3"
    },
    {
      "bufferView": 1,
      "byteOffset": 79264,
      "componentType": 5126,
      "count": 2514,
      "max": [
        0.875,
        1.0
      ],
      "min": [
        0.125,
        0.0
      ],
      "type": "VEC2"
    },
    {
      "bufferView": 0,
      "byteOffset": 227328,
      "componentType": 5125,
      "count": 13824,
      "type": "SCALAR"
    },
    {
      "bufferView": 2,
      "byteOffset": 298128,
      "componentType": 5126,
      "count": 5028,
      "max": [
        0.22269299626350403,
        0.45514899492263794,
        0.357897013425827
      ],
      "min": [
        -0.3475790023803711,
        -0.2697950005531311,
        0.0028699999675154686
      ],
      "type": "VEC3"
    },
    {
      "bufferView": 2,
      "byteOffset": 358464,
      "componentType": 5126,
      "count": 5028,
      "max": [
        0.9995569586753845,
        0.9976940155029297,
        0.999971866607666
      ],
      "min": [
        -0.9995887875556946,
        -0.9978238940238953,
        -0.9998582601547241
      ],
      "type": "VEC3"
    },
    {
      "bufferView": 1,
      "byteOffset": 99376,
      "componentType": 5126,
      "count": 5028,
      "max": [
        0.875,
        1.0
      ],
      "min": [
        0.125,
        0.0
      ],
      "type": "VEC2"
    },
    {
      "bufferView": 0,
      "byteOffset": 282624,
      "componentType": 5125,
      "count": 27648,
      "type": "SCALAR"
    }
  ],
  "asset": {
    "extras": {
      "author": "Criistinaa (https://sketchfab.com/Criistinaa)",
      "license": "CC-BY-4.0 (http://creativecommons.org/licenses/by/4.0/)",
      "source": "https://sketchfab.com/3d-models/dog-balloon-590c09f8407e46f5a1abce50c6bb790f",
      "title": "Dog Balloon"
    },
    "generator": "Sketchfab-16.0.0",
    "version": "2.0"
  },
  "bufferViews": [
    {
      "buffer": 0,
      "byteLength": 393216,
      "name": "floatBufferViews",
      "target": 34963
    },
    {
      "buffer": 0,
      "byteLength": 139600,
      "byteOffset": 393216,
      "byteStride": 8,
      "name": "floatBufferViews",
      "target": 34962
    },
    {
      "buffer": 0,
      "byteLength": 418800,
      "byteOffset": 532816,
      "byteStride": 12,
      "name": "floatBufferViews",
      "target": 34962
    }
  ],
  "buffers": [
    {
      "byteLength": 951616,
      "uri": "scene.bin"
    }
  ],
  "materials": [
    {
      "doubleSided": true,
      "name": "Coda",
      "pbrMetallicRoughness": {
        "baseColorFactor": [
          0.012777000000000024,
          0.011200000000000002,
          0.7999999999999999,
          1.0
        ],
        "roughnessFactor": 0.2
      }
    },
    {
      "doubleSided": true,
      "name": "Collo",
      "pbrMetallicRoughness": {
        "baseColorFactor": [
          0.012777000000000024,
          0.011200000000000002,
          0.7999999999999999,
          1.0
        ],
        "roughnessFactor": 0.2
      }
    },
    {
      "doubleSided": true,
      "name": "Corpo",
      "pbrMetallicRoughness": {
        "baseColorFactor": [
          0.012777000000000024,
          0.011200000000000002,
          0.7999999999999999,
          1.0
        ],
        "roughnessFactor": 0.2
      }
    },
    {
      "doubleSided": true,
      "name": "Muso",
      "pbrMetallicRoughness": {
        "baseColorFactor": [
          0.010811000000000003,
          0.01109900000000001,
          0.7999999999999999,
          1.0
        ],
        "roughnessFactor": 0.2
      }
    },
    {
      "doubleSided": true,
      "name": "Orecchie",
      "pbrMetallicRoughness": {
        "baseColorFactor": [
          0.012777000000000024,
          0.011200000000000002,
          0.7999999999999999,
          1.0
        ],
        "roughnessFactor": 0.2
      }
    },
    {
      "doubleSided": true,
      "name": "Zampe",
      "pbrMetallicRoughness": {
        "baseColorFactor": [
          0.011240000000000042,
          0.009852000000000014,
          0.7037489999999998,
          1.0
        ],
        "roughnessFactor": 0.2
      }
    }
  ],
  "meshes": [
    {
      "name": "Object_0",
      "primitives": [
        {
          "attributes": {
            "NORMAL": 1,
            "POSITION": 0,
            "TEXCOORD_0": 2
          },
          "indices": 3,
          "material": 0,
          "mode": 4
        }
      ]
    },
    {
      "name": "Object_1",
      "primitives": [
        {
          "attributes": {
            "NORMAL": 5,
            "POSITION": 4,
            "TEXCOORD_0": 6
          },
          "indices": 7,
          "material": 1,
          "mode": 4
        }
      ]
    },
    {
      "name": "Object_2",
      "primitives": [
        {
          "attributes": {
            "NORMAL": 9,
            "POSITION": 8,
            "TEXCOORD_0": 10
          },
          "indices": 11,
          "material": 2,
          "mode": 4
        }
      ]
    },
    {
      "name": "Object_3",
      "primitives": [
        {
          "attributes": {
            "NORMAL": 13,
            "POSITION": 12,
            "TEXCOORD_0": 14
          },
          "indices": 15,
          "material": 3,
          "mode": 4
        }
      ]
    },
    {
      "name": "Object_4",
      "primitives": [
        {
          "attributes": {
            "NORMAL": 17,
            "POSITION": 16,
            "TEXCOORD_0": 18
          },
          "indices": 19,
          "material": 4,
          "mode": 4
        }
      ]
    },
    {
      "name": "Object_5",
      "primitives": [
        {
          "attributes": {
            "NORMAL": 21,
            "POSITION": 20,
            "TEXCOORD_0": 22
          },
          "indices": 23,
          "material": 5,
          "mode": 4
        }
      ]
    }
  ],
  "nodes": [
    {
      "children": [
        1
      ],
      "matrix": [
        1.0,
        0.0,
        0.0,
        0.0,
        0.0,
        2.220446049250313e-16,
        -1.0,
        0.0,
        0.0,
        1.0,
        2.220446049250313e-16,
        0.0,
        0.0,
        0.0,
        0.0,
        1.0
      ],
      "name": "Sketchfab_model"
    },
    {
      "children": [
        2,
        3,
        4,
        5,
        6,
        7
      ],
      "name": "DogBalloon.obj.cleaner.materialmerger.gles"
    },
    {
      "mesh": 0,
      "name": "Object_2"
    },
    {
      "mesh": 1,
      "name": "Object_3"
    },
    {
      "mesh": 2,
      "name": "Object_4"
    },
    {
      "mesh": 3,
      "name": "Object_5"
    },
    {
      "mesh": 4,
      "name": "Object_6"
    },
    {
      "mesh": 5,
      "name": "Object_7"
    }
  ],
  "scene": 0,
  "scenes": [
    {
      "name": "Sketchfab_Scene",
      "nodes": [
        0
      ]
    }
  ]
}
